<?xml version="1.0" encoding="UTF-8"?>
<svg xmlns="http://www.w3.org/2000/svg" xmlns:xlink="http://www.w3.org/1999/xlink" width="504pt" height="360pt" viewBox="0 0 504 360" version="1.1">
<g id="surface114">
<rect x="0" y="0" width="504" height="360" style="fill:rgb(100%,100%,100%);fill-opacity:1;stroke:none;"/>
<path style="fill:none;stroke-width:2.25;stroke-linecap:round;stroke-linejoin:round;stroke:rgb(0%,0%,0%);stroke-opacity:1;stroke-miterlimit:10;" d="M 10.214844 114.675781 L 28.027344 114.675781 L 28.664063 114.660156 L 29.300781 114.660156 L 29.933594 114.65625 L 36.933594 114.65625 L 37.570313 114.632813 L 43.929688 114.632813 L 44.566406 114.488281 L 57.292969 114.488281 L 57.925781 114.355469 L 85.921875 114.355469 L 86.554688 114.199219 L 102.460938 114.199219 L 103.097656 114.128906 L 105.640625 114.128906 L 106.277344 114.023438 L 108.1875 114.023438 L 108.824219 113.558594 L 118.367188 113.558594 L 119 101.550781 L 146.996094 101.550781 L 147.628906 88.019531 L 162.261719 88.019531 L 162.898438 67.117188 L 174.351563 67.117188 L 174.988281 63.855469 L 179.441406 63.855469 L 180.078125 5.410156 L 183.894531 5.410156 L 184.53125 5.398438 L 186.4375 5.398438 L 187.074219 5.371094 L 213.792969 5.371094 L 214.429688 5.367188 L 216.976563 5.367188 L 217.613281 5.363281 L 222.066406 5.363281 L 222.699219 5.324219 L 241.785156 5.324219 "/>
<path style="fill:none;stroke-width:0.75;stroke-linecap:round;stroke-linejoin:round;stroke:rgb(0%,0%,0%);stroke-opacity:1;stroke-miterlimit:10;" d="M 0.949219 119.050781 L 251.050781 119.050781 L 251.050781 0.949219 L 0.949219 0.949219 Z M 0.949219 119.050781 "/>
<path style="fill:none;stroke-width:0.75;stroke-linecap:round;stroke-linejoin:round;stroke:rgb(0%,0%,0%);stroke-opacity:1;stroke-dasharray:3,3;stroke-miterlimit:10;" d="M 10.214844 114.675781 L 22.9375 114.675781 L 23.574219 114.597656 L 24.210938 114.558594 L 62.382813 114.558594 L 63.015625 113.578125 L 72.558594 113.578125 L 73.195313 113.460938 L 111.367188 113.460938 L 112.003906 113.222656 L 113.914063 113.222656 L 114.546875 111.925781 L 127.910156 111.925781 L 128.542969 110.792969 L 129.816406 110.792969 L 130.453125 81.835938 L 167.351563 81.835938 L 167.988281 70.058594 L 179.441406 70.058594 L 180.078125 68.089844 L 183.257813 68.089844 L 183.894531 8.246094 L 222.066406 8.246094 L 222.699219 5.324219 L 241.785156 5.324219 "/>
<path style="fill:none;stroke-width:2.25;stroke-linecap:round;stroke-linejoin:round;stroke:rgb(87.45098%,32.54902%,41.960784%);stroke-opacity:1;stroke-miterlimit:10;" d="M 262.214844 114.675781 L 264.121094 114.675781 L 264.757813 114.539063 L 277.480469 114.539063 L 278.117188 114.359375 L 280.664063 114.359375 L 281.300781 112.480469 L 294.023438 112.480469 L 294.660156 106.402344 L 307.382813 106.402344 L 308.019531 102.570313 L 314.382813 102.570313 L 315.015625 102.246094 L 317.5625 102.246094 L 318.199219 98.378906 L 319.46875 98.378906 L 320.105469 98.316406 L 326.46875 98.316406 L 327.105469 98.292969 L 331.558594 98.292969 L 332.195313 98.285156 L 344.917969 98.285156 L 345.554688 98.273438 L 357.640625 98.273438 L 358.277344 98.265625 L 361.460938 98.265625 L 362.09375 98.242188 L 374.820313 98.242188 L 375.457031 98.222656 L 377.363281 98.222656 L 378 98.148438 L 379.910156 98.148438 L 380.542969 56.269531 L 387.542969 56.269531 L 388.179688 15.804688 L 390.085938 15.804688 L 390.722656 12.542969 L 402.175781 12.542969 L 402.8125 5.386719 L 403.449219 5.386719 L 404.082031 5.367188 L 416.808594 5.367188 L 417.445313 5.324219 L 493.785156 5.324219 "/>
<path style="fill:none;stroke-width:0.75;stroke-linecap:round;stroke-linejoin:round;stroke:rgb(0%,0%,0%);stroke-opacity:1;stroke-miterlimit:10;" d="M 252.949219 119.050781 L 503.050781 119.050781 L 503.050781 0.949219 L 252.949219 0.949219 Z M 252.949219 119.050781 "/>
<path style="fill:none;stroke-width:0.75;stroke-linecap:round;stroke-linejoin:round;stroke:rgb(87.45098%,32.54902%,41.960784%);stroke-opacity:1;stroke-dasharray:3,3;stroke-miterlimit:10;" d="M 262.214844 114.675781 L 264.757813 114.675781 L 265.394531 113.953125 L 266.03125 113.953125 L 266.667969 113.894531 L 276.847656 113.894531 L 277.480469 113.128906 L 281.933594 113.128906 L 282.570313 112.144531 L 291.476563 112.144531 L 292.113281 111.015625 L 297.203125 111.015625 L 297.839844 108.886719 L 308.019531 108.886719 L 308.65625 108.699219 L 309.292969 108.699219 L 309.925781 107.71875 L 313.746094 107.71875 L 314.382813 107.4375 L 315.015625 107.4375 L 315.652344 104.734375 L 324.558594 104.734375 L 325.195313 103.671875 L 328.378906 103.671875 L 329.011719 102.417969 L 329.648438 102.417969 L 330.285156 100.734375 L 338.554688 100.734375 L 339.191406 99.28125 L 349.371094 99.28125 L 350.007813 97.707031 L 355.734375 97.707031 L 356.371094 96.273438 L 357.640625 96.273438 L 358.277344 95.457031 L 368.457031 95.457031 L 369.09375 94.175781 L 376.726563 94.175781 L 377.363281 93.691406 L 379.910156 93.691406 L 380.542969 60.933594 L 387.542969 60.933594 L 388.179688 17.949219 L 398.359375 17.949219 L 398.996094 6.550781 L 401.539063 6.550781 L 402.175781 6.148438 L 412.355469 6.148438 L 412.992188 5.917969 L 414.261719 5.917969 L 414.898438 5.820313 L 425.078125 5.820313 L 425.714844 5.585938 L 428.257813 5.585938 L 428.894531 5.566406 L 439.074219 5.566406 L 439.710938 5.535156 L 440.347656 5.476563 L 444.164063 5.476563 L 444.800781 5.441406 L 447.34375 5.441406 L 447.980469 5.414063 L 451.160156 5.414063 L 451.796875 5.410156 L 460.703125 5.410156 L 461.339844 5.378906 L 466.429688 5.378906 L 467.066406 5.355469 L 473.429688 5.355469 L 474.066406 5.335938 L 482.335938 5.335938 L 482.972656 5.324219 L 493.785156 5.324219 "/>
<path style="fill:none;stroke-width:2.25;stroke-linecap:round;stroke-linejoin:round;stroke:rgb(38.039216%,81.568627%,30.980392%);stroke-opacity:1;stroke-miterlimit:10;" d="M 10.214844 234.675781 L 12.121094 234.675781 L 12.757813 234.367188 L 13.394531 234.230469 L 14.03125 234.089844 L 14.667969 233.941406 L 15.304688 232.035156 L 22.9375 232.035156 L 23.574219 226.777344 L 31.207031 226.777344 L 31.84375 225.640625 L 36.933594 225.640625 L 37.570313 223.050781 L 39.476563 223.050781 L 40.113281 219.363281 L 43.296875 219.363281 L 43.929688 210.460938 L 51.566406 210.460938 L 52.203125 208.839844 L 52.839844 208.839844 L 53.472656 202.921875 L 54.109375 202.921875 L 54.746094 202.558594 L 62.382813 202.558594 L 63.015625 201.746094 L 63.652344 195.316406 L 64.289063 195.316406 L 64.925781 192.210938 L 70.652344 192.210938 L 71.289063 188.683594 L 71.921875 188.683594 L 72.558594 187.566406 L 80.195313 187.566406 L 80.832031 185.777344 L 82.101563 185.777344 L 82.738281 184.738281 L 85.921875 184.738281 L 86.554688 184.011719 L 94.191406 184.011719 L 94.828125 183.5625 L 97.371094 183.5625 L 98.007813 182.628906 L 99.28125 182.628906 L 99.917969 182.132813 L 107.550781 182.132813 L 108.1875 181.859375 L 110.730469 181.859375 L 111.367188 181.730469 L 112.003906 181.730469 L 112.640625 181.574219 L 120.273438 181.574219 L 120.910156 181.46875 L 122.820313 181.46875 L 123.457031 181.363281 L 131.089844 181.363281 L 131.726563 181.300781 L 135.542969 181.300781 L 136.179688 181.273438 L 136.816406 181.261719 L 137.453125 181.222656 L 138.085938 181.175781 L 140.632813 181.175781 L 141.269531 181.035156 L 147.628906 181.035156 L 148.265625 180.824219 L 150.8125 180.824219 L 151.449219 180.792969 L 152.082031 179.527344 L 152.71875 178.613281 L 160.355469 178.613281 L 160.992188 178.34375 L 162.261719 178.34375 L 162.898438 176.960938 L 163.535156 176.265625 L 164.171875 176.265625 L 164.808594 170.78125 L 166.714844 170.78125 L 167.351563 165.011719 L 167.988281 163.5625 L 175.621094 163.5625 L 176.257813 146.167969 L 178.167969 146.167969 L 178.804688 140.648438 L 179.441406 140.648438 L 180.078125 139.359375 L 185.800781 139.359375 L 186.4375 128.878906 L 194.074219 128.878906 L 194.707031 128.003906 L 195.34375 126.644531 L 202.980469 126.644531 L 203.617188 125.707031 L 209.339844 125.707031 L 209.976563 125.402344 L 213.15625 125.402344 L 213.792969 125.34375 L 221.429688 125.34375 L 222.066406 125.339844 L 222.699219 125.332031 L 227.152344 125.332031 L 227.789063 125.324219 L 241.785156 125.324219 "/>
<path style="fill:none;stroke-width:0.75;stroke-linecap:round;stroke-linejoin:round;stroke:rgb(0%,0%,0%);stroke-opacity:1;stroke-miterlimit:10;" d="M 0.949219 239.050781 L 251.050781 239.050781 L 251.050781 120.949219 L 0.949219 120.949219 Z M 0.949219 239.050781 "/>
<path style="fill:none;stroke-width:0.75;stroke-linecap:round;stroke-linejoin:round;stroke:rgb(38.039216%,81.568627%,30.980392%);stroke-opacity:1;stroke-dasharray:3,3;stroke-miterlimit:10;" d="M 10.214844 234.675781 L 23.574219 234.675781 L 24.210938 225.71875 L 24.847656 224.496094 L 31.84375 224.496094 L 32.480469 217.410156 L 56.65625 217.410156 L 57.292969 198.160156 L 68.742188 198.160156 L 69.378906 195.1875 L 107.550781 195.1875 L 108.1875 188.617188 L 110.730469 188.617188 L 111.367188 186.589844 L 113.277344 186.589844 L 113.914063 178.988281 L 127.273438 178.988281 L 127.910156 178.734375 L 130.453125 178.734375 L 131.089844 167.226563 L 166.714844 167.226563 L 167.351563 161.714844 L 178.804688 161.714844 L 179.441406 160.605469 L 180.710938 160.605469 L 181.347656 128.675781 L 218.246094 128.675781 L 218.882813 125.324219 L 241.785156 125.324219 "/>
<path style="fill:none;stroke-width:2.25;stroke-linecap:round;stroke-linejoin:round;stroke:rgb(13.333333%,59.215686%,90.196078%);stroke-opacity:1;stroke-miterlimit:10;" d="M 262.214844 234.675781 L 262.847656 234.675781 L 263.484375 233.613281 L 278.117188 233.613281 L 278.753906 232.582031 L 295.296875 232.582031 L 295.929688 230.847656 L 300.382813 230.847656 L 301.019531 229.699219 L 311.199219 229.699219 L 311.835938 228.128906 L 328.378906 228.128906 L 329.011719 227.207031 L 330.285156 227.207031 L 330.921875 224.773438 L 340.464844 224.773438 L 341.101563 222.925781 L 357.640625 222.925781 L 358.277344 221.097656 L 366.546875 221.097656 L 367.183594 217.855469 L 380.542969 217.855469 L 381.179688 215.273438 L 384.363281 215.273438 L 385 213.261719 L 401.539063 213.261719 L 402.175781 211.390625 L 403.449219 211.390625 L 404.082031 209.574219 L 420.625 209.574219 L 421.261719 208.535156 L 421.898438 183.742188 L 438.4375 183.742188 L 439.074219 171.546875 L 442.890625 171.546875 L 443.527344 138.394531 L 444.164063 138.394531 L 444.800781 133.71875 L 447.34375 133.71875 L 447.980469 133.417969 L 464.523438 133.417969 L 465.15625 131.113281 L 468.976563 131.113281 L 469.613281 127.40625 L 475.972656 127.40625 L 476.609375 125.972656 L 478.519531 125.972656 L 479.152344 125.324219 L 493.785156 125.324219 "/>
<path style="fill:none;stroke-width:0.75;stroke-linecap:round;stroke-linejoin:round;stroke:rgb(0%,0%,0%);stroke-opacity:1;stroke-miterlimit:10;" d="M 252.949219 239.050781 L 503.050781 239.050781 L 503.050781 120.949219 L 252.949219 120.949219 Z M 252.949219 239.050781 "/>
<path style="fill:none;stroke-width:0.75;stroke-linecap:round;stroke-linejoin:round;stroke:rgb(13.333333%,59.215686%,90.196078%);stroke-opacity:1;stroke-dasharray:3,3;stroke-miterlimit:10;" d="M 262.214844 234.675781 L 280.664063 234.675781 L 281.300781 231.363281 L 296.566406 231.363281 L 297.203125 228.871094 L 311.835938 228.871094 L 312.472656 227.457031 L 350.644531 227.457031 L 351.28125 225.28125 L 353.824219 225.28125 L 354.460938 218.8125 L 382.453125 218.8125 L 383.089844 215.066406 L 387.542969 215.066406 L 388.179688 213.761719 L 390.722656 213.761719 L 391.359375 205.539063 L 428.257813 205.539063 L 428.894531 155.878906 L 429.53125 152.523438 L 449.890625 152.523438 L 450.527344 141.398438 L 488.695313 141.398438 L 489.332031 125.324219 L 493.785156 125.324219 "/>
<path style="fill:none;stroke-width:2.25;stroke-linecap:round;stroke-linejoin:round;stroke:rgb(15.686275%,88.627451%,89.803922%);stroke-opacity:1;stroke-miterlimit:10;" d="M 10.214844 354.675781 L 12.121094 354.675781 L 12.757813 329.375 L 13.394531 329.375 L 14.03125 327.734375 L 25.480469 327.734375 L 26.117188 302.953125 L 26.753906 296.90625 L 38.207031 296.90625 L 38.84375 294.746094 L 41.386719 294.746094 L 42.023438 288.726563 L 44.566406 288.726563 L 45.203125 288.632813 L 56.65625 288.632813 L 57.292969 288.621094 L 57.925781 288.609375 L 62.382813 288.609375 L 63.015625 288.554688 L 73.195313 288.554688 L 73.832031 288.535156 L 77.011719 288.535156 L 77.648438 288.386719 L 84.011719 288.386719 L 84.648438 288.304688 L 87.828125 288.304688 L 88.464844 288.273438 L 99.917969 288.273438 L 100.550781 288.136719 L 104.371094 288.136719 L 105.003906 287.867188 L 105.640625 287.539063 L 117.09375 287.539063 L 117.730469 286.886719 L 125.363281 286.886719 L 126 286.402344 L 127.273438 286.402344 L 127.910156 284.777344 L 135.542969 284.777344 L 136.179688 282.273438 L 138.085938 282.273438 L 138.722656 281.050781 L 150.175781 281.050781 L 150.8125 275.683594 L 160.992188 275.683594 L 161.625 272.78125 L 162.261719 270.003906 L 173.714844 270.003906 L 174.351563 260.816406 L 175.621094 260.816406 L 176.257813 259.777344 L 176.894531 259.777344 L 177.53125 259.398438 L 188.984375 259.398438 L 189.617188 254.332031 L 191.527344 254.332031 L 192.164063 252.550781 L 192.800781 250.882813 L 204.25 250.882813 L 204.886719 250.234375 L 209.339844 250.234375 L 209.976563 248.195313 L 211.886719 248.195313 L 212.523438 246.984375 L 223.972656 246.984375 L 224.609375 245.902344 L 225.246094 245.902344 L 225.882813 245.726563 L 229.699219 245.726563 L 230.335938 245.332031 L 230.972656 245.332031 L 231.609375 245.324219 L 241.785156 245.324219 "/>
<path style="fill:none;stroke-width:0.75;stroke-linecap:round;stroke-linejoin:round;stroke:rgb(0%,0%,0%);stroke-opacity:1;stroke-miterlimit:10;" d="M 0.949219 359.050781 L 251.050781 359.050781 L 251.050781 240.949219 L 0.949219 240.949219 Z M 0.949219 359.050781 "/>
<path style="fill:none;stroke-width:0.75;stroke-linecap:round;stroke-linejoin:round;stroke:rgb(15.686275%,88.627451%,89.803922%);stroke-opacity:1;stroke-dasharray:3,3;stroke-miterlimit:10;" d="M 10.214844 354.675781 L 21.664063 354.675781 L 22.300781 335.757813 L 38.207031 335.757813 L 38.84375 302.921875 L 65.5625 302.921875 L 66.199219 285.015625 L 73.195313 285.015625 L 73.832031 282.464844 L 83.375 282.464844 L 84.011719 280.925781 L 110.730469 280.925781 L 111.367188 280.183594 L 119.636719 280.183594 L 120.273438 278.441406 L 127.273438 278.441406 L 127.910156 276.074219 L 153.992188 276.074219 L 154.628906 269.09375 L 181.347656 269.09375 L 181.984375 266.457031 L 190.890625 266.457031 L 191.527344 257.058594 L 216.976563 257.058594 L 217.613281 254.675781 L 220.792969 254.675781 L 221.429688 249.011719 L 222.066406 249.011719 L 222.699219 245.324219 L 241.785156 245.324219 "/>
<path style="fill:none;stroke-width:2.25;stroke-linecap:round;stroke-linejoin:round;stroke:rgb(80.392157%,4.313725%,73.72549%);stroke-opacity:1;stroke-miterlimit:10;" d="M 262.214844 354.675781 L 273.664063 354.675781 L 274.300781 351.753906 L 281.933594 351.753906 L 282.570313 347.386719 L 304.203125 347.386719 L 304.839844 344.113281 L 312.472656 344.113281 L 313.109375 339.96875 L 313.746094 339.96875 L 314.382813 316.933594 L 315.015625 316.933594 L 315.652344 294.9375 L 337.285156 294.9375 L 337.921875 278.4375 L 346.828125 278.4375 L 347.460938 275.640625 L 354.460938 275.640625 L 355.097656 275.46875 L 356.371094 275.46875 L 357.003906 267.113281 L 360.1875 267.113281 L 360.824219 263.863281 L 372.910156 263.863281 L 373.546875 261.1875 L 381.179688 261.1875 L 381.816406 259.867188 L 383.726563 259.867188 L 384.363281 256.324219 L 385 256.324219 L 385.632813 253.738281 L 407.265625 253.738281 L 407.902344 250.667969 L 411.71875 250.667969 L 412.355469 247.707031 L 433.984375 247.707031 L 434.621094 245.765625 L 454.34375 245.765625 L 454.980469 245.464844 L 463.886719 245.464844 L 464.523438 245.339844 L 472.15625 245.339844 L 472.792969 245.324219 L 493.785156 245.324219 "/>
<path style="fill:none;stroke-width:0.75;stroke-linecap:round;stroke-linejoin:round;stroke:rgb(0%,0%,0%);stroke-opacity:1;stroke-miterlimit:10;" d="M 252.949219 359.050781 L 503.050781 359.050781 L 503.050781 240.949219 L 252.949219 240.949219 Z M 252.949219 359.050781 "/>
<path style="fill:none;stroke-width:0.75;stroke-linecap:round;stroke-linejoin:round;stroke:rgb(80.392157%,4.313725%,73.72549%);stroke-opacity:1;stroke-dasharray:3,3;stroke-miterlimit:10;" d="M 262.214844 354.675781 L 262.847656 354.675781 L 263.484375 354.523438 L 264.121094 354.523438 L 264.757813 354.511719 L 278.753906 354.511719 L 279.390625 354.308594 L 280.027344 353.347656 L 295.296875 353.347656 L 295.929688 340.410156 L 309.925781 340.410156 L 310.5625 339.28125 L 311.199219 339.28125 L 311.835938 334.144531 L 313.109375 334.144531 L 313.746094 307.351563 L 326.46875 307.351563 L 327.105469 296.820313 L 327.742188 296.820313 L 328.378906 281.101563 L 334.101563 281.101563 L 334.738281 278.304688 L 337.921875 278.304688 L 338.554688 277.558594 L 353.824219 277.558594 L 354.460938 273.90625 L 357.640625 273.90625 L 358.277344 269.292969 L 370.367188 269.292969 L 371 265.429688 L 378.636719 265.429688 L 379.273438 259.855469 L 385.632813 259.855469 L 386.269531 256.339844 L 388.179688 256.339844 L 388.816406 255.03125 L 404.082031 255.03125 L 404.71875 251.660156 L 414.261719 251.660156 L 414.898438 249.441406 L 426.351563 249.441406 L 426.988281 247.285156 L 427.621094 247.175781 L 442.890625 247.175781 L 443.527344 246.140625 L 446.074219 246.140625 L 446.707031 245.898438 L 449.253906 245.898438 L 449.890625 245.871094 L 462.613281 245.871094 L 463.25 245.683594 L 467.703125 245.683594 L 468.339844 245.480469 L 474.699219 245.480469 L 475.335938 245.386719 L 476.609375 245.386719 L 477.246094 245.367188 L 480.425781 245.367188 L 481.0625 245.324219 L 493.785156 245.324219 "/>
</g>
</svg>
